<svg width="129" height="19" viewBox="0 0 129 19" fill="none" xmlns="http://www.w3.org/2000/svg">
<path d="M15.184 1.2V18H12.064V10.8H3.376V18H0.256V1.2H3.376V8.136H12.064V1.2H15.184ZM27.5337 18.24C25.8217 18.24 24.2777 17.872 22.9017 17.136C21.5257 16.384 20.4457 15.352 19.6617 14.04C18.8777 12.712 18.4857 11.232 18.4857 9.6C18.4857 7.968 18.8777 6.496 19.6617 5.184C20.4457 3.856 21.5257 2.824 22.9017 2.088C24.2777 1.336 25.8217 0.959999 27.5337 0.959999C29.2457 0.959999 30.7897 1.336 32.1657 2.088C33.5417 2.824 34.6217 3.848 35.4057 5.16C36.1897 6.472 36.5817 7.952 36.5817 9.6C36.5817 11.248 36.1897 12.728 35.4057 14.04C34.6217 15.352 33.5417 16.384 32.1657 17.136C30.7897 17.872 29.2457 18.24 27.5337 18.24ZM27.5337 15.504C28.6537 15.504 29.6617 15.256 30.5577 14.76C31.4537 14.248 32.1577 13.544 32.6697 12.648C33.1817 11.736 33.4377 10.72 33.4377 9.6C33.4377 8.48 33.1817 7.472 32.6697 6.576C32.1577 5.664 31.4537 4.96 30.5577 4.464C29.6617 3.952 28.6537 3.696 27.5337 3.696C26.4137 3.696 25.4057 3.952 24.5097 4.464C23.6137 4.96 22.9097 5.664 22.3977 6.576C21.8857 7.472 21.6297 8.48 21.6297 9.6C21.6297 10.72 21.8857 11.736 22.3977 12.648C22.9097 13.544 23.6137 14.248 24.5097 14.76C25.4057 15.256 26.4137 15.504 27.5337 15.504ZM55.3208 18L55.2968 6.864L49.7768 16.08H48.3848L42.8648 7.008V18H39.8888V1.2H42.4568L49.1288 12.336L55.6808 1.2H58.2488L58.2728 18H55.3208ZM75.4107 15.384V18H62.8107V1.2H75.0747V3.816H65.9307V8.184H74.0427V10.752H65.9307V15.384H75.4107ZM85.9493 12.072V18H82.8293V12.12L76.2293 1.2H79.5653L84.4853 9.384L89.4533 1.2H92.5253L85.9493 12.072ZM101.69 18.24C99.9779 18.24 98.4339 17.872 97.0579 17.136C95.6819 16.384 94.6019 15.352 93.8179 14.04C93.0339 12.712 92.6419 11.232 92.6419 9.6C92.6419 7.968 93.0339 6.496 93.8179 5.184C94.6019 3.856 95.6819 2.824 97.0579 2.088C98.4339 1.336 99.9779 0.959999 101.69 0.959999C103.402 0.959999 104.946 1.336 106.322 2.088C107.698 2.824 108.778 3.848 109.562 5.16C110.346 6.472 110.738 7.952 110.738 9.6C110.738 11.248 110.346 12.728 109.562 14.04C108.778 15.352 107.698 16.384 106.322 17.136C104.946 17.872 103.402 18.24 101.69 18.24ZM101.69 15.504C102.81 15.504 103.818 15.256 104.714 14.76C105.61 14.248 106.314 13.544 106.826 12.648C107.338 11.736 107.594 10.72 107.594 9.6C107.594 8.48 107.338 7.472 106.826 6.576C106.314 5.664 105.61 4.96 104.714 4.464C103.818 3.952 102.81 3.696 101.69 3.696C100.57 3.696 99.5619 3.952 98.6659 4.464C97.7699 4.96 97.0659 5.664 96.5539 6.576C96.0419 7.472 95.7859 8.48 95.7859 9.6C95.7859 10.72 96.0419 11.736 96.5539 12.648C97.0659 13.544 97.7699 14.248 98.6659 14.76C99.5619 15.256 100.57 15.504 101.69 15.504ZM121.269 18.24C118.949 18.24 117.141 17.592 115.845 16.296C114.549 14.984 113.901 13.112 113.901 10.68V1.2H117.021V10.56C117.021 13.856 118.445 15.504 121.293 15.504C124.125 15.504 125.541 13.856 125.541 10.56V1.2H128.613V10.68C128.613 13.112 127.965 14.984 126.669 16.296C125.389 17.592 123.589 18.24 121.269 18.24Z" fill="#272727"/>
</svg>
