<svg width="27" height="27" viewBox="0 0 27 27" fill="none" xmlns="http://www.w3.org/2000/svg">
<path d="M1.56757 13.4595L4.21021 10.8169M4.21021 10.8169L13.4595 1.56763L22.7087 10.8169M4.21021 10.8169V24.0301C4.21021 24.7598 4.80178 25.3514 5.53153 25.3514H9.49549M22.7087 10.8169L25.3514 13.4595M22.7087 10.8169V24.0301C22.7087 24.7598 22.1171 25.3514 21.3874 25.3514H17.4234M9.49549 25.3514C10.2252 25.3514 10.8168 24.7598 10.8168 24.0301V18.7448C10.8168 18.0151 11.4084 17.4235 12.1381 17.4235H14.7808C15.5105 17.4235 16.1021 18.0151 16.1021 18.7448V24.0301C16.1021 24.7598 16.6937 25.3514 17.4234 25.3514M9.49549 25.3514H17.4234" stroke="#F9F9F9" stroke-width="2" stroke-linecap="round" stroke-linejoin="round"/>
</svg>
